
ENGLISH SUBTITLES HARDCODED

Format : MPEG-4
Format profile : Base Media / Version 2
Codec ID : mp42
File size : 696 MiB
Duration : 1h 58mn
Overall bit rate : 820 Kbps
Encoded date : UTC 2010-10-18 08:40:46
Tagged date : UTC 2010-10-18 09:54:32
Writing application : HandBrake 0.9.4 2009112300

Video
ID : 1
Format : AVC
Format/Info : Advanced Video Codec
Format profile : Main@L3.0
Format settings, CABAC : Yes
Format settings, ReFrames : 2 frames
Codec ID : avc1
Codec ID/Info : Advanced Video Coding
Duration : 1h 58mn
Bit rate mode : Variable
Bit rate : 656 Kbps
Nominal bit rate : 660 Kbps
Width : 718 pixels
Height : 306 pixels
Display aspect ratio : 2.35:1
Frame rate mode : Constant
Frame rate : 25.000 fps
Resolution : 24 bits
Colorimetry : 4:2:0
Scan type : Progressive
Bits/(Pixel*Frame) : 0.119
Stream size : 557 MiB (80%)
Writing library : x264 core 79

Audio
ID : 2
Format : AAC
Format/Info : Advanced Audio Codec
Format version : Version 4
Format profile : LC
Format settings, SBR : No
Codec ID : 40
Duration : 1h 58mn
Bit rate mode : Variable
Bit rate : 160 Kbps
Maximum bit rate : 225 Kbps
Channel(s) : 2 channels
Channel positions : L R
Sampling rate : 48.0 KHz
Resolution : 16 bits
Stream size : 136 MiB (20%)
Encoded date : UTC 2010-10-18 08:40:46
Tagged date : UTC 2010-10-18 09:54:32

When the mysterious deaths of a series of loyal subjects threaten to delay the 690 A.D. inauguration of Empress Wu Zetian, she summons the infamous Detective Dee back from an exile into which she cast him eight years earlier
 
http://www.imdb.com/title/tt1123373/

screen shots

 
http://img263.imageshack.us/img263/6971/detectivedeeh264vicem4v.jpg 
http://img251.imageshack.us/img251/6971/detectivedeeh264vicem4v.jpg 
http://img822.imageshack.us/img822/6971/detectivedeeh264vicem4v.jpg 
http://img177.imageshack.us/img177/6971/detectivedeeh264vicem4v.jpg
 
http://img708.imageshack.us/img708/6971/detectivedeeh264vicem4v.jpg